<mxfile host="app.diagrams.net" agent="Mozilla/5.0 (Windows NT 10.0; Win64; x64) AppleWebKit/537.36 (KHTML, like Gecko) Chrome/133.0.0.0 Safari/537.36" version="26.0.16">
  <diagram name="Seite-1" id="IGzOPPFE7aq8hMTPI8w9">
    <mxGraphModel dx="1295" dy="486" grid="1" gridSize="10" guides="1" tooltips="1" connect="1" arrows="1" fold="1" page="1" pageScale="1" pageWidth="827" pageHeight="1169" math="1" shadow="0">
      <root>
        <mxCell id="0" />
        <mxCell id="1" parent="0" />
        <mxCell id="xzeQXmWhyYh-CJMgQoSp-10" value="" style="triangle;whiteSpace=wrap;html=1;rotation=-90;" parent="1" vertex="1">
          <mxGeometry x="380" y="400" width="60" height="80" as="geometry" />
        </mxCell>
        <mxCell id="xzeQXmWhyYh-CJMgQoSp-12" value="" style="shape=trapezoid;perimeter=trapezoidPerimeter;whiteSpace=wrap;html=1;fixedSize=1;size=40;" parent="1" vertex="1">
          <mxGeometry x="330" y="470" width="160" height="60" as="geometry" />
        </mxCell>
        <mxCell id="xzeQXmWhyYh-CJMgQoSp-14" value="" style="shape=trapezoid;perimeter=trapezoidPerimeter;whiteSpace=wrap;html=1;fixedSize=1;size=60;" parent="1" vertex="1">
          <mxGeometry x="270" y="530" width="280" height="90" as="geometry" />
        </mxCell>
        <mxCell id="xzeQXmWhyYh-CJMgQoSp-15" value="" style="shape=trapezoid;perimeter=trapezoidPerimeter;whiteSpace=wrap;html=1;fixedSize=1;size=60;" parent="1" vertex="1">
          <mxGeometry x="210" y="620" width="400" height="90" as="geometry" />
        </mxCell>
        <mxCell id="xzeQXmWhyYh-CJMgQoSp-16" value="&lt;b&gt;Register&lt;/b&gt;" style="text;html=1;align=center;verticalAlign=middle;whiteSpace=wrap;rounded=0;" parent="1" vertex="1">
          <mxGeometry x="380" y="440" width="60" height="30" as="geometry" />
        </mxCell>
        <mxCell id="xzeQXmWhyYh-CJMgQoSp-17" value="&lt;b&gt;Cache&lt;/b&gt;" style="text;html=1;align=center;verticalAlign=middle;whiteSpace=wrap;rounded=0;" parent="1" vertex="1">
          <mxGeometry x="380" y="485" width="60" height="30" as="geometry" />
        </mxCell>
        <mxCell id="xzeQXmWhyYh-CJMgQoSp-18" value="&lt;b&gt;Main Memory&lt;/b&gt;" style="text;html=1;align=center;verticalAlign=middle;whiteSpace=wrap;rounded=0;" parent="1" vertex="1">
          <mxGeometry x="370" y="560" width="80" height="30" as="geometry" />
        </mxCell>
        <mxCell id="xzeQXmWhyYh-CJMgQoSp-19" value="&lt;b&gt;SSD Background Memory&lt;/b&gt;" style="text;html=1;align=center;verticalAlign=middle;whiteSpace=wrap;rounded=0;" parent="1" vertex="1">
          <mxGeometry x="332.5" y="650" width="155" height="30" as="geometry" />
        </mxCell>
        <mxCell id="xzeQXmWhyYh-CJMgQoSp-31" style="edgeStyle=orthogonalEdgeStyle;rounded=0;orthogonalLoop=1;jettySize=auto;html=1;entryX=0.5;entryY=0;entryDx=0;entryDy=0;curved=1;" parent="1" source="xzeQXmWhyYh-CJMgQoSp-20" target="xzeQXmWhyYh-CJMgQoSp-24" edge="1">
          <mxGeometry relative="1" as="geometry" />
        </mxCell>
        <mxCell id="xzeQXmWhyYh-CJMgQoSp-20" value="0.2ns" style="text;html=1;align=center;verticalAlign=middle;whiteSpace=wrap;rounded=0;" parent="1" vertex="1">
          <mxGeometry x="450" y="425" width="40" height="30" as="geometry" />
        </mxCell>
        <mxCell id="xzeQXmWhyYh-CJMgQoSp-21" value="1-40ns" style="text;html=1;align=center;verticalAlign=middle;whiteSpace=wrap;rounded=0;" parent="1" vertex="1">
          <mxGeometry x="490" y="485" width="40" height="30" as="geometry" />
        </mxCell>
        <mxCell id="xzeQXmWhyYh-CJMgQoSp-34" style="edgeStyle=orthogonalEdgeStyle;rounded=0;orthogonalLoop=1;jettySize=auto;html=1;exitX=1;exitY=0.5;exitDx=0;exitDy=0;entryX=0.5;entryY=0;entryDx=0;entryDy=0;curved=1;" parent="1" source="xzeQXmWhyYh-CJMgQoSp-22" target="xzeQXmWhyYh-CJMgQoSp-26" edge="1">
          <mxGeometry relative="1" as="geometry">
            <Array as="points">
              <mxPoint x="700" y="575" />
            </Array>
          </mxGeometry>
        </mxCell>
        <mxCell id="xzeQXmWhyYh-CJMgQoSp-22" value="170-250ns" style="text;html=1;align=center;verticalAlign=middle;whiteSpace=wrap;rounded=0;" parent="1" vertex="1">
          <mxGeometry x="550" y="560" width="60" height="30" as="geometry" />
        </mxCell>
        <mxCell id="xzeQXmWhyYh-CJMgQoSp-23" value="10-40&lt;span style=&quot;color: rgb(4, 12, 40); text-align: left;&quot;&gt;&lt;font style=&quot;&quot;&gt;Î¼&lt;/font&gt;&lt;/span&gt;&lt;span style=&quot;background-color: transparent; color: light-dark(rgb(0, 0, 0), rgb(255, 255, 255));&quot;&gt;s&lt;/span&gt;" style="text;html=1;align=center;verticalAlign=middle;whiteSpace=wrap;rounded=0;" parent="1" vertex="1">
          <mxGeometry x="610" y="650" width="50" height="30" as="geometry" />
        </mxCell>
        <mxCell id="xzeQXmWhyYh-CJMgQoSp-27" style="edgeStyle=orthogonalEdgeStyle;rounded=0;orthogonalLoop=1;jettySize=auto;html=1;exitX=1;exitY=0.5;exitDx=0;exitDy=0;curved=1;entryX=0.5;entryY=0;entryDx=0;entryDy=0;" parent="1" source="xzeQXmWhyYh-CJMgQoSp-21" target="xzeQXmWhyYh-CJMgQoSp-25" edge="1">
          <mxGeometry relative="1" as="geometry" />
        </mxCell>
        <mxCell id="xzeQXmWhyYh-CJMgQoSp-32" style="edgeStyle=orthogonalEdgeStyle;rounded=0;orthogonalLoop=1;jettySize=auto;html=1;entryX=1;entryY=0.5;entryDx=0;entryDy=0;curved=1;" parent="1" source="xzeQXmWhyYh-CJMgQoSp-24" target="xzeQXmWhyYh-CJMgQoSp-21" edge="1">
          <mxGeometry relative="1" as="geometry" />
        </mxCell>
        <mxCell id="xzeQXmWhyYh-CJMgQoSp-24" value="x200" style="text;html=1;align=center;verticalAlign=middle;whiteSpace=wrap;rounded=0;" parent="1" vertex="1">
          <mxGeometry x="520" y="460" width="60" height="20" as="geometry" />
        </mxCell>
        <mxCell id="xzeQXmWhyYh-CJMgQoSp-28" style="edgeStyle=orthogonalEdgeStyle;rounded=0;orthogonalLoop=1;jettySize=auto;html=1;curved=1;entryX=1;entryY=0.5;entryDx=0;entryDy=0;exitX=0.5;exitY=1;exitDx=0;exitDy=0;" parent="1" source="xzeQXmWhyYh-CJMgQoSp-25" target="xzeQXmWhyYh-CJMgQoSp-22" edge="1">
          <mxGeometry relative="1" as="geometry">
            <Array as="points">
              <mxPoint x="640" y="575" />
            </Array>
            <mxPoint x="700" y="570" as="targetPoint" />
          </mxGeometry>
        </mxCell>
        <mxCell id="xzeQXmWhyYh-CJMgQoSp-25" value="x6.25" style="text;html=1;align=center;verticalAlign=middle;whiteSpace=wrap;rounded=0;" parent="1" vertex="1">
          <mxGeometry x="610" y="530" width="60" height="15" as="geometry" />
        </mxCell>
        <mxCell id="xzeQXmWhyYh-CJMgQoSp-35" style="edgeStyle=orthogonalEdgeStyle;rounded=0;orthogonalLoop=1;jettySize=auto;html=1;entryX=1;entryY=0.5;entryDx=0;entryDy=0;curved=1;exitX=0.5;exitY=1;exitDx=0;exitDy=0;" parent="1" source="xzeQXmWhyYh-CJMgQoSp-26" target="xzeQXmWhyYh-CJMgQoSp-23" edge="1">
          <mxGeometry relative="1" as="geometry">
            <Array as="points">
              <mxPoint x="700" y="665" />
            </Array>
          </mxGeometry>
        </mxCell>
        <mxCell id="xzeQXmWhyYh-CJMgQoSp-26" value="x160000" style="text;html=1;align=center;verticalAlign=middle;whiteSpace=wrap;rounded=0;" parent="1" vertex="1">
          <mxGeometry x="670" y="620" width="60" height="15" as="geometry" />
        </mxCell>
        <mxCell id="gDjq5VceVf-SCCc0VJiq-2" value="" style="endArrow=classic;html=1;rounded=0;strokeWidth=2;" parent="1" edge="1">
          <mxGeometry width="50" height="50" relative="1" as="geometry">
            <mxPoint x="40" y="565" as="sourcePoint" />
            <mxPoint x="130" y="565" as="targetPoint" />
          </mxGeometry>
        </mxCell>
        <mxCell id="VBUTdxjnh0rxI4QkkXef-1" value="&lt;b&gt;Input&lt;/b&gt;" style="edgeLabel;html=1;align=center;verticalAlign=middle;resizable=0;points=[];" vertex="1" connectable="0" parent="gDjq5VceVf-SCCc0VJiq-2">
          <mxGeometry x="-0.192" relative="1" as="geometry">
            <mxPoint as="offset" />
          </mxGeometry>
        </mxCell>
        <mxCell id="gDjq5VceVf-SCCc0VJiq-3" value="" style="endArrow=classic;html=1;rounded=0;strokeWidth=2;" parent="1" edge="1">
          <mxGeometry width="50" height="50" relative="1" as="geometry">
            <mxPoint x="189.71" y="530" as="sourcePoint" />
            <mxPoint x="190" y="425" as="targetPoint" />
          </mxGeometry>
        </mxCell>
        <mxCell id="VBUTdxjnh0rxI4QkkXef-4" value="" style="shape=cylinder3;whiteSpace=wrap;html=1;boundedLbl=1;backgroundOutline=1;size=15;" vertex="1" parent="1">
          <mxGeometry x="150" y="555" width="60" height="45" as="geometry" />
        </mxCell>
        <mxCell id="VBUTdxjnh0rxI4QkkXef-5" value="" style="shape=cylinder3;whiteSpace=wrap;html=1;boundedLbl=1;backgroundOutline=1;size=15;" vertex="1" parent="1">
          <mxGeometry x="150" y="535" width="60" height="42.5" as="geometry" />
        </mxCell>
        <mxCell id="VBUTdxjnh0rxI4QkkXef-6" value="" style="endArrow=classic;html=1;rounded=0;strokeWidth=2;" edge="1" parent="1">
          <mxGeometry width="50" height="50" relative="1" as="geometry">
            <mxPoint x="170" y="425" as="sourcePoint" />
            <mxPoint x="169.71" y="530" as="targetPoint" />
          </mxGeometry>
        </mxCell>
        <mxCell id="VBUTdxjnh0rxI4QkkXef-8" value="&lt;b&gt;CPU Operations&lt;/b&gt;" style="edgeLabel;html=1;align=center;verticalAlign=middle;resizable=0;points=[];" vertex="1" connectable="0" parent="VBUTdxjnh0rxI4QkkXef-6">
          <mxGeometry x="-0.0193" relative="1" as="geometry">
            <mxPoint x="10" y="-1" as="offset" />
          </mxGeometry>
        </mxCell>
        <mxCell id="VBUTdxjnh0rxI4QkkXef-9" value="" style="shape=cylinder3;whiteSpace=wrap;html=1;boundedLbl=1;backgroundOutline=1;size=15;" vertex="1" parent="1">
          <mxGeometry x="150" y="663.79" width="60" height="45" as="geometry" />
        </mxCell>
        <mxCell id="VBUTdxjnh0rxI4QkkXef-10" value="" style="shape=cylinder3;whiteSpace=wrap;html=1;boundedLbl=1;backgroundOutline=1;size=15;" vertex="1" parent="1">
          <mxGeometry x="150" y="646.29" width="60" height="42.5" as="geometry" />
        </mxCell>
        <mxCell id="VBUTdxjnh0rxI4QkkXef-11" value="" style="endArrow=classic;html=1;rounded=0;strokeWidth=2;" edge="1" parent="1">
          <mxGeometry width="50" height="50" relative="1" as="geometry">
            <mxPoint x="190" y="645" as="sourcePoint" />
            <mxPoint x="190" y="604" as="targetPoint" />
          </mxGeometry>
        </mxCell>
        <mxCell id="VBUTdxjnh0rxI4QkkXef-12" value="" style="endArrow=classic;html=1;rounded=0;strokeWidth=2;" edge="1" parent="1">
          <mxGeometry width="50" height="50" relative="1" as="geometry">
            <mxPoint x="170" y="604" as="sourcePoint" />
            <mxPoint x="170" y="645" as="targetPoint" />
          </mxGeometry>
        </mxCell>
        <mxCell id="VBUTdxjnh0rxI4QkkXef-13" value="&lt;b&gt;Spilling&lt;/b&gt;" style="edgeLabel;html=1;align=center;verticalAlign=middle;resizable=0;points=[];" vertex="1" connectable="0" parent="VBUTdxjnh0rxI4QkkXef-12">
          <mxGeometry x="-0.0193" relative="1" as="geometry">
            <mxPoint x="10" as="offset" />
          </mxGeometry>
        </mxCell>
      </root>
    </mxGraphModel>
  </diagram>
</mxfile>
